<?xml version="1.0" standalone="no"?>
<!DOCTYPE svg PUBLIC "-//W3C//DTD SVG 20010904//EN"
 "http://www.w3.org/TR/2001/REC-SVG-20010904/DTD/svg10.dtd">
<svg version="1.0" xmlns="http://www.w3.org/2000/svg"
 width="512.000000pt" height="512.000000pt" viewBox="0 0 512.000000 512.000000"
 preserveAspectRatio="xMidYMid meet">
<metadata>
Created by potrace 1.14, written by Peter Selinger 2001-2017
</metadata>
<g transform="translate(0.000000,512.000000) scale(0.100000,-0.100000)"
fill="#000000" stroke="none">
<path d="M1378 4845 c-3 -4 -36 -9 -73 -11 -70 -5 -94 -8 -155 -20 -53 -10
-65 -12 -65 -14 0 -1 -11 -4 -25 -7 -35 -7 -42 -9 -73 -21 -16 -7 -32 -12 -36
-12 -11 0 -111 -44 -184 -81 -61 -31 -191 -116 -242 -159 -64 -54 -199 -198
-233 -247 -19 -29 -39 -53 -45 -53 -6 0 -8 -3 -4 -6 3 -4 -6 -25 -22 -48 -52
-77 -141 -281 -155 -356 -2 -14 -6 -27 -7 -30 -1 -3 -3 -9 -4 -15 -2 -5 -4
-12 -5 -15 -5 -14 -13 -57 -28 -160 -11 -77 -4 -295 13 -380 3 -17 11 -52 20
-90 3 -14 8 -45 11 -69 3 -25 7 -49 10 -53 3 -5 8 -21 11 -36 3 -15 6 -31 7
-37 3 -13 36 -125 44 -145 3 -8 6 -19 8 -25 7 -28 66 -178 93 -238 17 -37 31
-72 31 -77 0 -6 5 -10 10 -10 6 0 10 -6 10 -12 0 -12 49 -117 60 -128 3 -3 15
-25 28 -50 12 -25 42 -76 66 -115 25 -38 54 -87 66 -108 11 -20 25 -37 30 -37
6 0 10 -5 10 -11 0 -12 52 -89 76 -113 8 -9 12 -16 7 -16 -4 0 -3 -4 2 -8 17
-12 75 -90 75 -101 0 -5 4 -11 9 -13 4 -2 42 -43 82 -93 40 -49 78 -95 84
-101 5 -7 39 -44 75 -84 91 -102 271 -281 369 -370 46 -41 89 -80 95 -85 37
-34 186 -152 280 -222 61 -45 120 -89 131 -98 10 -8 23 -15 27 -15 5 0 18 -8
29 -18 10 -11 32 -25 47 -33 15 -8 36 -22 46 -31 11 -10 29 -21 40 -24 11 -4
26 -13 34 -20 7 -8 18 -11 24 -8 6 4 8 3 5 -3 -9 -14 405 -220 431 -215 6 2
12 -1 12 -7 0 -5 13 -8 29 -6 31 4 148 51 169 67 6 6 12 8 12 5 0 -17 400 207
421 236 3 5 8 7 10 6 5 -3 53 27 100 63 20 15 39 25 43 21 3 -3 6 -2 6 4 0 5
26 27 57 49 32 21 65 46 74 54 9 8 29 24 44 35 16 11 33 25 39 30 6 6 20 17
32 25 25 18 104 84 149 125 18 17 62 56 99 89 172 153 397 395 558 600 48 61
92 116 98 123 5 7 10 15 10 18 0 3 11 18 24 32 13 14 30 37 38 52 7 14 16 28
19 31 10 10 111 163 120 184 5 11 15 30 21 41 67 103 160 290 218 435 12 30
28 70 36 88 8 18 14 41 14 50 0 10 4 22 8 28 9 9 33 85 37 114 1 8 5 22 8 30
5 13 37 160 51 240 3 14 7 34 9 45 24 108 24 307 1 454 -4 20 -7 41 -8 48 -1
7 -5 15 -8 19 -4 3 -5 11 -2 18 2 6 -4 37 -15 69 -11 31 -17 57 -14 57 3 0 1
6 -4 13 -6 6 -16 29 -23 50 -7 22 -18 51 -26 65 -8 15 -14 33 -14 40 0 6 -4
12 -10 12 -5 0 -10 7 -10 15 0 15 -19 55 -31 65 -3 3 -14 21 -24 40 -10 19
-24 39 -31 43 -8 4 -14 14 -14 21 0 7 -9 23 -19 35 -11 12 -34 41 -53 63 -42
53 -188 198 -199 198 -4 0 -19 11 -33 25 -14 14 -28 25 -31 25 -3 0 -26 15
-52 34 -47 33 -253 139 -253 130 0 -3 -10 1 -22 8 -13 6 -27 13 -33 14 -5 1
-41 11 -80 22 -90 27 -175 41 -263 46 -39 2 -76 7 -81 11 -6 3 -11 1 -11 -5 0
-7 -6 -8 -19 -1 -10 6 -21 8 -23 5 -3 -2 -36 -6 -74 -8 -38 -3 -100 -10 -139
-16 -38 -7 -77 -14 -85 -15 -8 -1 -22 -5 -30 -8 -8 -4 -24 -8 -35 -10 -23 -5
-36 -9 -125 -44 -108 -43 -231 -110 -317 -174 -46 -34 -83 -65 -83 -70 0 -5
-5 -9 -11 -9 -16 0 -143 -134 -203 -215 -16 -22 -19 -20 -79 57 -23 30 -137
148 -137 143 0 -3 -13 9 -29 25 -15 17 -34 30 -41 30 -7 0 -10 3 -7 7 4 3 -2
11 -12 17 -11 6 -46 29 -78 51 -32 22 -77 50 -100 62 -46 25 -199 94 -217 98
-6 1 -18 5 -26 8 -14 5 -90 27 -115 33 -35 7 -86 15 -125 20 -59 6 -115 13
-126 15 -5 1 -11 1 -14 -1 -16 -6 -80 -4 -83 3 -1 5 -5 5 -9 2z"/>
</g>
</svg>
